<svg width="20" height="18" viewBox="0 0 20 18" fill="none" xmlns="http://www.w3.org/2000/svg">
<path d="M1.34126e-06 5.994C-0.000525832 5.2062 0.154353 4.42604 0.455768 3.69819C0.757183 2.97033 1.19921 2.30908 1.75655 1.7523C2.31388 1.19553 2.97558 0.754157 3.70373 0.45347C4.43189 0.152783 5.21221 -0.00131464 6 7.20851e-07H14C17.313 7.20851e-07 20 2.695 20 5.994V18H6C2.687 18 1.34126e-06 15.305 1.34126e-06 12.006V5.994ZM18 16V5.994C17.9974 4.9345 17.5749 3.91924 16.8251 3.17062C16.0754 2.422 15.0595 2.00106 14 2H6C5.47485 1.99868 4.9546 2.10105 4.4691 2.30123C3.98359 2.5014 3.54238 2.79545 3.17076 3.16652C2.79914 3.53758 2.50443 3.97835 2.30353 4.46355C2.10262 4.94876 1.99947 5.46885 2 5.994V12.006C2.00265 13.0655 2.42511 14.0808 3.17486 14.8294C3.9246 15.578 4.9405 15.9989 6 16H18ZM12 8H14V10H12V8ZM6 8H8V10H6V8Z" fill="#7F7F7F"/>
</svg>
