<svg width="20" height="20" viewBox="0 0 20 20" fill="none" xmlns="http://www.w3.org/2000/svg">
<path d="M1.34 15C0.91727 14.269 0.588664 13.4875 0.362 12.674C0.855307 12.4231 1.26959 12.0406 1.55903 11.5689C1.84846 11.0972 2.00176 10.5546 2.00197 10.0011C2.00218 9.44767 1.84928 8.90495 1.5602 8.43301C1.27112 7.96106 0.857119 7.57828 0.364 7.32701C0.816036 5.69249 1.67673 4.19996 2.865 2.99001C3.32909 3.29173 3.86762 3.45917 4.42098 3.47379C4.97434 3.48841 5.52095 3.34964 6.00033 3.07284C6.47971 2.79604 6.87315 2.392 7.13713 1.90545C7.4011 1.41889 7.52531 0.868782 7.496 0.316006C9.13811 -0.108372 10.8612 -0.107683 12.503 0.318006C12.474 0.870771 12.5984 1.4208 12.8626 1.90721C13.1268 2.39363 13.5204 2.79748 13.9998 3.07407C14.4793 3.35065 15.0259 3.48919 15.5793 3.47436C16.1326 3.45952 16.671 3.29189 17.135 2.99001C17.714 3.58001 18.228 4.25101 18.66 5.00001C19.093 5.74901 19.417 6.53001 19.638 7.32601C19.1447 7.57691 18.7304 7.95938 18.441 8.43111C18.1515 8.90284 17.9982 9.44545 17.998 9.99889C17.9978 10.5523 18.1507 11.0951 18.4398 11.567C18.7289 12.039 19.1429 12.4217 19.636 12.673C19.184 14.3075 18.3233 15.8001 17.135 17.01C16.6709 16.7083 16.1324 16.5408 15.579 16.5262C15.0257 16.5116 14.479 16.6504 13.9997 16.9272C13.5203 17.204 13.1268 17.608 12.8629 18.0946C12.5989 18.5811 12.4747 19.1312 12.504 19.684C10.8619 20.1084 9.13877 20.1077 7.497 19.682C7.52605 19.1292 7.4016 18.5792 7.13742 18.0928C6.87324 17.6064 6.47964 17.2025 6.00017 16.9259C5.5207 16.6494 4.97405 16.5108 4.42073 16.5257C3.8674 16.5405 3.32896 16.7081 2.865 17.01C2.27399 16.407 1.76159 15.7316 1.34 15ZM7 15.196C8.06563 15.8106 8.86685 16.797 9.25 17.966C9.749 18.013 10.25 18.014 10.749 17.967C11.1324 16.7979 11.934 15.8114 13 15.197C14.0652 14.5807 15.3205 14.3795 16.525 14.632C16.815 14.224 17.065 13.789 17.273 13.334C16.4524 12.4174 15.9991 11.2302 16 10C16 8.74001 16.47 7.56301 17.273 6.66601C17.0635 6.21115 16.8125 5.77664 16.523 5.36801C15.3193 5.62032 14.0648 5.41948 13 4.80401C11.9344 4.18938 11.1332 3.20299 10.75 2.03401C10.251 1.98701 9.75 1.98601 9.251 2.03301C8.8676 3.20215 8.066 4.18857 7 4.80301C5.93478 5.41932 4.67948 5.62053 3.475 5.36801C3.18556 5.77629 2.93513 6.21087 2.727 6.66601C3.54757 7.58257 4.00088 8.7698 4 10C4 11.26 3.53 12.437 2.727 13.334C2.93647 13.7889 3.18754 14.2234 3.477 14.632C4.68072 14.3797 5.93521 14.5805 7 15.196ZM10 13C9.20435 13 8.44129 12.6839 7.87868 12.1213C7.31607 11.5587 7 10.7957 7 10C7 9.20436 7.31607 8.44129 7.87868 7.87869C8.44129 7.31608 9.20435 7.00001 10 7.00001C10.7956 7.00001 11.5587 7.31608 12.1213 7.87869C12.6839 8.44129 13 9.20436 13 10C13 10.7957 12.6839 11.5587 12.1213 12.1213C11.5587 12.6839 10.7956 13 10 13ZM10 11C10.2652 11 10.5196 10.8946 10.7071 10.7071C10.8946 10.5196 11 10.2652 11 10C11 9.73479 10.8946 9.48044 10.7071 9.2929C10.5196 9.10536 10.2652 9.00001 10 9.00001C9.73478 9.00001 9.48043 9.10536 9.29289 9.2929C9.10536 9.48044 9 9.73479 9 10C9 10.2652 9.10536 10.5196 9.29289 10.7071C9.48043 10.8946 9.73478 11 10 11Z" fill="#7F7F7F"/>
</svg>
